<?xml version="1.0" encoding="UTF-8"?>
<svg id="Layer_2" data-name="Layer 2" xmlns="http://www.w3.org/2000/svg" xmlns:xlink="http://www.w3.org/1999/xlink" viewBox="0 0 1003.63 206.04">
  <defs>
    <style>
      .cls-1 {
        fill: #9edede;
      }

      .cls-2 {
        fill: #d7eef4;
      }

      .cls-3 {
        fill: none;
        stroke: #0ebbcc;
        stroke-miterlimit: 10;
      }

      .cls-4 {
        fill: url(#linear-gradient-2);
      }

      .cls-5 {
        fill: #70bacb;
      }

      .cls-6 {
        fill: #fff;
      }

      .cls-7 {
        fill: #6ac5e4;
      }

      .cls-8 {
        fill: url(#linear-gradient-3);
      }

      .cls-9 {
        fill: #0ebbcc;
      }

      .cls-10 {
        fill: url(#linear-gradient);
      }

      .cls-11 {
        fill: #232b4f;
      }

      .cls-12 {
        fill: #b6e5ed;
      }
    </style>
    <linearGradient id="linear-gradient" x1="684.04" y1="185.31" x2="1055.32" y2="175.93" gradientUnits="userSpaceOnUse">
      <stop offset="0" stop-color="#fff"/>
      <stop offset=".57" stop-color="#70bacb"/>
      <stop offset="1" stop-color="#fff"/>
    </linearGradient>
    <linearGradient id="linear-gradient-2" x1="677.18" y1="177.15" x2="1051.49" y2="179.27" gradientUnits="userSpaceOnUse">
      <stop offset="0" stop-color="#fff"/>
      <stop offset=".09" stop-color="#eff7f9"/>
      <stop offset=".26" stop-color="#c6e3ea"/>
      <stop offset=".5" stop-color="#85c4d2"/>
      <stop offset=".57" stop-color="#70bacb"/>
      <stop offset="1" stop-color="#fff"/>
    </linearGradient>
    <linearGradient id="linear-gradient-3" x1="852.13" y1="126.25" x2="896.31" y2="195.24" gradientUnits="userSpaceOnUse">
      <stop offset="0" stop-color="#fff"/>
      <stop offset=".07" stop-color="#eff8fc"/>
      <stop offset=".21" stop-color="#c6e6f4"/>
      <stop offset=".4" stop-color="#85c9e8"/>
      <stop offset=".57" stop-color="#46aedd"/>
      <stop offset="1" stop-color="#fff"/>
    </linearGradient>
  </defs>
  <g id="Layer_1-2" data-name="Layer 1">
    <g>
      <g>
        <path class="cls-7" d="M862.45,46.71c-.46,7.38-4.03,17.99-19.25,20.06-.13.03-.26.05-.39.07-1.36.23-2.67.63-3.9,1.18h0c-21.65-3.29-45.64-2.73-54.49-2.36,25.99-9.69,43.55-30.19,55.52-39.04h0c14.72-3.49,22.98,12.88,22.53,20.09Z"/>
        <path class="cls-9" d="M838.89,68.02c-.78.35-1.52.75-2.23,1.21h0c-4.43.41-14.88,1.69-27.03,5.45-12.15,3.76-23.47,6.04-39.86,5.1h0c-.38-.26-.77-.48-1.16-.66-3.76-1.72-9.97-3.35-14.77-8.38-1.45-1.52-2.77-3.34-3.86-5.57,1.79,1.56,4.8,3.45,9.46,4.3,5.46,1,13.18.6,23.83-3.39.39-.14.77-.28,1.15-.42,8.85-.37,32.84-.93,54.49,2.36Z"/>
        <path class="cls-1" d="M836.65,69.24c-2.4,1.56-4.38,3.73-5.73,6.34-3.82,7.37-12.09,18.72-27.39,20.49-21.66,2.5-27.29-11.94-33.77-16.29,16.39.94,27.71-1.34,39.86-5.1,12.15-3.76,22.6-5.04,27.03-5.44Z"/>
        <path class="cls-2" d="M811,7.73c-11.15,6.33-17.84,15.17-25.11,18.63-5.58,2.65-14.69,2.1-20.4,1.39.11-1.3,2.73-28.3,25.25-27.74,17.41,0,19.97,6.73,20.27,7.72Z"/>
        <path class="cls-12" d="M839.92,26.62c-11.97,8.85-29.52,29.35-55.52,39.04-.38.15-.76.28-1.15.42-10.65,3.99-18.37,4.39-23.83,3.39-4.66-.86-7.68-2.75-9.46-4.3-1.2-2.48-2.12-5.46-2.61-9.07-.86-6.38.28-12.92,3.69-18.39,5.98-9.62,14.44-9.91,14.44-9.91,0,0,0-.01,0-.05,5.71.71,14.83,1.26,20.4-1.39,7.26-3.47,13.96-12.3,25.11-18.63.02.08.03.12.03.12,0,0,24.68-5.88,27.9,19.03.33-.1.66-.19.99-.26Z"/>
      </g>
      <g>
        <path class="cls-11" d="M852.52,71.92c0-5.14,1.06-10.96,3.25-17.62l9.53,2.57c-1.36,4.31-2.12,7.94-2.12,11.57.08,7.49,4.08,11.19,11.95,11.19s11.49-4.01,11.42-12.48v-28.21l11.8-1.44v31.31c0,14.52-8.09,23.29-23.22,23.29s-22.61-6.65-22.61-20.19Z"/>
        <path class="cls-11" d="M934.04,64.13v10.89c0,.45-.3.83-.76.83-3.18,0-5.9-1.06-7.86-3.02v1.29c0,13.08-7.03,18-21.48,18l-.83-9.6c6.12,0,10.59-2.42,10.59-8.92l-.08-34.63,11.8-1.44v20.34c.6,3.55,3.86,5.52,7.86,5.52.45,0,.76.3.76.76Z"/>
        <path class="cls-11" d="M947.47,64.13v10.89c0,.45-.3.83-.76.83h-13.43c-.45,0-.76-.38-.76-.83v-10.89c0-.45.3-.76.76-.76h13.43c.45,0,.76.3.76.76Z"/>
        <path class="cls-11" d="M985.23,55.21c0,12.55-8.32,20.64-21.63,20.64h-17.39c-.53,0-.76-.23-.76-.83v-10.89c0-.45.3-.76.76-.76h4.69c-1.44-3.02-2.27-5.9-2.27-8.85,0-10.28,7.79-17.62,17.92-17.62,10.81,0,18.68,7.71,18.68,18.3ZM973.43,55.14c0-4.01-3.02-6.96-7.03-6.96s-7.26,3.25-7.26,7.41c0,2.42.76,4.99,2.12,7.79h2.42c6.12,0,9.75-3.25,9.75-8.24Z"/>
      </g>
      <g>
        <path class="cls-11" d="M790.74,138.72l-12.25-18.68v29.11h-11.8v-51.42h12.78l15.73,23.97,15.8-23.97h12.78v50.74l-13.16,1.36v-29.79l-12.55,18.68h-7.33Z"/>
        <path class="cls-11" d="M847.15,97.06v30.63c0,7.86,2.57,11.65,10.28,11.65s10.28-3.78,10.28-11.65v-29.26l13.08-1.36v33.5c0,10.28-7.03,19.36-23.37,19.36s-23.37-9.23-23.37-19.36v-32.14l13.08-1.36Z"/>
        <path class="cls-11" d="M929.88,149.16h-41.51v-8.39l24.05-32.44h-22.61v-10.59h39.32v8.32l-24.05,32.52h23.44l1.36,10.59Z"/>
        <path class="cls-11" d="M949.69,149.16h-11.8v-51.42h12.78l22.76,31.15v-30.47l11.8-1.36v52.1h-12.78l-22.76-31.76v31.76Z"/>
      </g>
      <path class="cls-10" d="M854.69,155.16s-68.25,2.85-86.56,17.98c-18.32,19.73,58.83,27.74,106.46,27.74s125.64-8.03,109.54-26.81c-15.23-15.78-87.74-18.84-87.74-18.84,0,0,69.44.57,99.67,16.07,35.61,23.08-62.75,35.56-121.07,34.7-58.32-.86-130.64-9.91-127.84-25.4,9.68-23.67,107.54-25.44,107.54-25.44Z"/>
      <path class="cls-5" d="M848.59,168.87s-6.97.91-7.46,4.84c-.11.89.35,1.75,1.13,2.19,4.55,2.55,17.33,5.01,32.79,5.01,17.85,0,38.85-3.05,33.96-8.8-4.26-3.54-9.54-3.94-9.54-3.94,0,0,12.8,1.17,20.92,4.56,13.77,7.41-23.3,12.59-45.15,12.27-21.85-.32-48.94-3.71-47.89-9.52,1.41-6.15,21.24-6.62,21.24-6.62Z"/>
      <path class="cls-4" d="M853.54,161.92s-27.63,2-43.69,9.26c-1.29.58-2.36,1.56-2.97,2.84-5.52,11.61,38.09,16,68.24,16,31.95,0,76.9-6.03,68.15-16.32-7.89-8.54-45.78-11.63-45.78-11.63,0,0,38.35-.52,58.62,9.88,23.88,15.48-41.7,23.23-80.82,22.65s-87.62-6.64-85.74-17.04c4.93-13.65,63.99-15.64,63.99-15.64Z"/>
      <path class="cls-8" d="M875.25,136.7s3.81,7.3,10.53,17.09c.97,1.41,1.75,2.95,2.24,4.58,3.62,11.97-6.52,18.22-12.77,18.22-5.63,0-13.09-4.24-13.31-13.25-.07-2.95.71-5.86,2.16-8.43,5.28-9.36,9.24-13.91,11.15-18.21Z"/>
      <path class="cls-6" d="M867.4,156.33s-8.25,9.79,1.9,15.71c.77.45,1.7.54,2.52.2,1.08-.45,1.01-1.03-.21-1.92-1.63-1.17-6.67-3.19-4.21-13.99Z"/>
      <path class="cls-11" d="M928.92,21.11c-.37-1.22-.95-2.37-1.67-3.42-5.03-7.33-7.88-12.79-7.88-12.79-1.42,3.22-4.38,6.62-8.34,13.63-1.08,1.92-1.67,4.1-1.62,6.31.16,6.74,5.75,9.91,9.96,9.91,4.68,0,12.28-4.68,9.56-13.64ZM917.17,31.97c-.52.22-1.12.16-1.61-.13-6.47-3.77-1.21-10.02-1.21-10.02-1.57,6.89,1.65,8.17,2.68,8.92.78.57.83.94.14,1.23Z"/>
      <path class="cls-11" d="M868.83,33.19h0c2.57-2.54,6.7-2.54,9.27,0l.05.05c2.59,2.57,2.6,6.75.02,9.33h0c-2.55,2.55-6.69,2.57-9.27.04l-.05-.04c-2.62-2.57-2.63-6.79-.02-9.38Z"/>
    </g>
    <g>
      <path class="cls-11" d="M1.66,71.04c0-10.24,7.29-18.97,17.6-18.97s17.46,8.73,17.46,18.97-7.29,18.18-17.46,18.18S1.66,81.28,1.66,71.04ZM26.12,70.82c0-4.04-2.89-7.5-6.85-7.5s-7,3.46-7,7.5,2.96,7.07,7,7.07,6.85-3.1,6.85-7.07Z"/>
      <path class="cls-11" d="M43.79,73.27l-.07-36.07,11.25-1.3.07,33.33c0,5.12,1.88,7.43,5.99,7.43.43,0,.72.29.72.72l.07,10.39c0,.43-.29.79-.72.79-11.62,0-17.31-5.12-17.31-15.29Z"/>
      <path class="cls-11" d="M75.83,77.39v10.39c0,.43-.29.79-.72.79h-14c-.43,0-.72-.36-.72-.79v-10.39c0-.43.29-.72.72-.72h14c.43,0,.72.29.72.72Z"/>
      <path class="cls-11" d="M89.83,77.39v10.39c0,.43-.29.79-.72.79h-14c-.43,0-.72-.36-.72-.79v-10.39c0-.43.29-.72.72-.72h14c.43,0,.72.29.72.72Z"/>
      <path class="cls-11" d="M103.82,77.39v10.39c0,.43-.29.79-.72.79h-14c-.43,0-.72-.36-.72-.79v-10.39c0-.43.29-.72.72-.72h14c.43,0,.72.29.72.72Z"/>
      <path class="cls-11" d="M117.82,77.39v10.39c0,.43-.29.79-.72.79h-14c-.43,0-.72-.36-.72-.79v-10.39c0-.43.29-.72.72-.72h14c.43,0,.72.29.72.72Z"/>
      <path class="cls-11" d="M145.74,77.39v10.39c0,.43-.29.79-.72.79-3.82,0-7.94-1.95-11.33-5.41-3.32,3.61-9.02,5.41-16.59,5.41-.43,0-.72-.36-.72-.79l.14-10.39c0-.43.29-.72.72-.72,5.63,0,8.66-2.17,8.66-7.36l-.07-8.66,11.25-1.3v15.01c2.38,1.51,5.12,2.31,7.94,2.31.43,0,.72.29.72.72ZM136.22,92.25l7.57,7.43-7.43,7.43-5.27-5.12-5.12,5.12-7.58-7.43,7.43-7.43,5.27,5.12,5.12-5.12Z"/>
      <path class="cls-11" d="M187.16,77.39v10.39c0,.58-.22.79-.72.79h-16.95c-4.98,0-9.31-1.3-12.62-3.61-3.68,2.31-8.08,3.61-11.83,3.61-.43,0-.72-.36-.72-.79v-10.39c0-.43.29-.72.72-.72,1.95,0,3.68-.29,5.19-.79-.65-2.16-1.01-4.47-1.01-7,0-10.03,7.43-17.46,17.82-17.46,9.38,0,16.95,7.21,16.95,16.38,0,2.81-.5,5.7-1.44,8.87h3.9c.43,0,.72.29.72.72ZM173.02,76.66c.72-2.96,1.01-5.41,1.01-7.43,0-3.9-3.03-7.14-6.85-7.14s-6.71,2.89-6.71,6.78c0,4.62,3.32,7.79,8.95,7.79h3.61Z"/>
      <path class="cls-11" d="M210.89,87.77c0,.43-.29.79-.72.79-6.35,0-10.89-1.51-13.78-4.54-3.32,3.1-6.13,4.54-9.96,4.54-.43,0-.72-.36-.72-.79v-10.39c0-.43.29-.72.72-.72,2.67,0,4.76-.65,6.49-1.88-.07-.5-.07-1.01-.07-1.51l-.07-36.07,11.33-1.3v33.33c0,5.12,1.88,7.43,5.99,7.43.43,0,.72.29.72.72l.07,10.39Z"/>
      <path class="cls-11" d="M209.53,87.77l.07-10.39c0-.43.29-.72.72-.72,4.11,0,5.99-2.31,5.99-7.43l.07-32.03,11.25-1.3-.07,37.37c0,10.17-5.7,15.29-17.31,15.29-.43,0-.72-.36-.72-.79Z"/>
      <path class="cls-11" d="M290.76,77.39v10.39c0,.43-.29.79-.72.79-4.55,0-8.01-.87-10.53-2.67-4.33,2.24-8.15,3.32-12.12,3.32-10.24,0-17.53-7.94-17.53-18.18s7.29-18.97,17.53-18.97c2.38,0,4.69.5,7.29,1.37v-3.9l11.25-1.37.07,24.02c0,3.17,1.44,4.47,4.04,4.47.43,0,.72.29.72.72ZM262.27,47.09l-7.5-7.5,7.43-7.43,5.7,5.55,5.63-5.55,7.5,7.43-7.36,7.5-5.77-5.63-5.63,5.63ZM274.89,76.88c-.14-.94-.14-2.02-.14-3.1l-.07-9.31c-2.31-.79-4.47-1.3-6.71-1.3-4.62,0-7.65,3.17-7.65,7.65,0,4.04,2.96,7.14,7.07,7.29,2.67.07,5.27-.36,7.5-1.23Z"/>
      <path class="cls-11" d="M304.76,77.39v10.39c0,.43-.29.79-.72.79h-14c-.43,0-.72-.36-.72-.79v-10.39c0-.43.29-.72.72-.72h14c.43,0,.72.29.72.72Z"/>
      <path class="cls-11" d="M318.76,77.39v10.39c0,.43-.29.79-.72.79h-14c-.43,0-.72-.36-.72-.79v-10.39c0-.43.29-.72.72-.72h14c.43,0,.72.29.72.72Z"/>
      <path class="cls-11" d="M346.68,77.39v10.39c0,.43-.29.79-.72.79-3.82,0-7.94-1.95-11.33-5.41-3.32,3.61-9.02,5.41-16.59,5.41-.43,0-.72-.36-.72-.79l.14-10.39c0-.43.29-.72.72-.72,5.63,0,8.66-2.17,8.66-7.36l-.07-8.66,11.25-1.3v15.01c2.38,1.51,5.12,2.31,7.94,2.31.43,0,.72.29.72.72ZM337.16,92.25l7.57,7.43-7.43,7.43-5.27-5.12-5.12,5.12-7.58-7.43,7.43-7.43,5.27,5.12,5.12-5.12Z"/>
      <path class="cls-11" d="M371.57,77.39v10.39c0,.43-.29.79-.72.79-4.26,0-8.08-1.66-11.04-4.62-2.89,3.03-7.5,4.62-13.85,4.62-.43,0-.72-.36-.72-.79l.14-10.39c0-.43.29-.72.72-.72,4.04,0,5.99-2.24,5.99-7.36l-.07-8.66,11.25-1.3v15.22c2.16,1.3,4.54,2.09,7.58,2.09.43,0,.72.29.72.72ZM357.87,55.02l-7.58-7.43,7.5-7.43,7.5,7.43-7.43,7.43Z"/>
      <path class="cls-11" d="M431.6,66.85c0,3.25-.72,7.43-1.95,12.12l-8.22,9.59h-50.57c-.43,0-.72-.36-.72-.79l.14-10.39c0-.43.29-.72.72-.72h5.41v-39.46l11.33-1.3v22.51c13.49-6.42,20.2-8.51,27.27-8.51,9.88,0,16.59,6.85,16.59,16.95ZM420.27,67.94c0-3.82-3.17-6.49-7.79-6.49-5.92,0-9.09,1.01-24.75,6.06v9.16h31.09c.94-3.46,1.44-6.28,1.44-8.73Z"/>
      <path class="cls-11" d="M475.25,77.39v10.39c0,.43-.29.79-.72.79h-3.54c-1.01,11.25-12.77,15.51-29.58,15.51l-1.15-9.16c12.05,0,18.04-1.73,19.33-6.35h-6.06c-10.24,0-17.1-7.14-17.1-17.96s7.79-18.61,17.75-18.61,16.88,6.85,16.88,18.04v6.64h3.46c.43,0,.72.29.72.72ZM454.55,77.31c1.66,0,3.46-.14,5.34-.29v-6.2c0-4.69-2.67-7.43-6.57-7.43-3.61,0-6.78,2.67-6.78,6.85,0,4.76,3.54,7.07,8.01,7.07Z"/>
      <path class="cls-11" d="M473.82,87.77l.07-10.39c0-.43.29-.72.72-.72,4.11,0,5.99-2.31,5.99-7.43l.07-32.03,11.25-1.3-.07,37.37c0,10.17-5.7,15.29-17.31,15.29-.43,0-.72-.36-.72-.79Z"/>
      <path class="cls-11" d="M502.1,37.2l11.25-1.3v52.67h-11.25v-51.37Z"/>
      <path class="cls-11" d="M535.36,84.82c0-4.91,1.01-10.46,3.1-16.81l9.09,2.45c-1.3,4.11-2.02,7.58-2.02,11.04.07,7.14,3.9,10.68,11.4,10.68s10.97-3.82,10.89-11.9v-26.91l11.25-1.37v29.87c0,13.85-7.72,22.22-22.15,22.22s-21.57-6.35-21.57-19.26ZM547.84,52.35l7.5-7.43,7.5,7.43-7.43,7.43-7.58-7.43Z"/>
      <path class="cls-11" d="M611.26,77.39v10.39c0,.43-.29.79-.72.79-3.03,0-5.63-1.01-7.5-2.89v1.23c0,12.48-6.71,17.17-20.49,17.17l-.79-9.16c5.84,0,10.1-2.31,10.1-8.51l-.07-33.04,11.25-1.37v19.41c.58,3.39,3.68,5.27,7.5,5.27.43,0,.72.29.72.72ZM597.41,48.6l-7.58-7.43,7.5-7.43,7.5,7.43-7.43,7.43Z"/>
      <path class="cls-11" d="M625.26,77.39v10.39c0,.43-.29.79-.72.79h-14c-.43,0-.72-.36-.72-.79v-10.39c0-.43.29-.72.72-.72h14c.43,0,.72.29.72.72Z"/>
      <path class="cls-11" d="M639.26,77.39v10.39c0,.43-.29.79-.72.79h-14c-.43,0-.72-.36-.72-.79v-10.39c0-.43.29-.72.72-.72h14c.43,0,.72.29.72.72Z"/>
      <path class="cls-11" d="M653.25,77.39v10.39c0,.43-.29.79-.72.79h-14c-.43,0-.72-.36-.72-.79v-10.39c0-.43.29-.72.72-.72h14c.43,0,.72.29.72.72Z"/>
      <path class="cls-11" d="M667.25,77.39v10.39c0,.43-.29.79-.72.79h-14c-.43,0-.72-.36-.72-.79v-10.39c0-.43.29-.72.72-.72h14c.43,0,.72.29.72.72Z"/>
      <path class="cls-11" d="M703.76,68.87c0,11.98-7.94,19.7-20.63,19.7h-16.59c-.5,0-.72-.22-.72-.79v-10.39c0-.43.29-.72.72-.72h4.47c-1.37-2.89-2.16-5.63-2.16-8.44,0-9.81,7.43-16.81,17.1-16.81,10.32,0,17.82,7.36,17.82,17.46ZM692.5,68.8c0-3.82-2.89-6.64-6.71-6.64s-6.93,3.1-6.93,7.07c0,2.31.72,4.76,2.02,7.43h2.31c5.84,0,9.31-3.1,9.31-7.86Z"/>
    </g>
    <g>
      <path class="cls-11" d="M21.95,166.78l-11.18-17.05v26.57H0v-46.93h11.66l14.36,21.88,14.42-21.88h11.66v46.31l-12.01,1.24v-27.19l-11.46,17.05h-6.69Z"/>
      <path class="cls-11" d="M94.34,141.8v34.51h-10.21l-1.1-4.83c-2.42,3.66-6,5.52-10.28,5.52-7.73,0-11.94-4.28-11.94-12.98v-21.67l11.39-1.24v22.57c0,3.11,1.79,4.83,5.25,4.83,2.42,0,4.14-1.04,5.52-2.35v-24.36h11.39Z"/>
      <path class="cls-11" d="M130.3,148.49l-15.32,19.32h16.7v8.49h-31.06v-6.76l15.32-19.32h-14.36v-8.42h28.71v6.69Z"/>
      <path class="cls-11" d="M171.5,154.09v22.22h-11.39v-21.95c0-3.04-1.79-4.83-5.25-4.83-2.42,0-4.14,1.1-5.52,2.42v24.36h-11.39v-34.51h10.21l1.1,4.83c2.42-3.73,6-5.52,10.28-5.52,7.73,0,11.94,4.28,11.94,12.98Z"/>
      <path class="cls-11" d="M205.46,176.31h-10.77v-46.93h11.66l20.77,28.43v-27.81l10.77-1.24v47.55h-11.66l-20.77-28.99v28.99Z"/>
      <path class="cls-11" d="M283.38,168.3v8.01c-1.52.41-4.35.69-5.59.69-5.38,0-8.21-2-9.32-5.66-3.52,4.9-8.01,5.66-11.73,5.66-7.32,0-11.53-4.42-11.53-10.01,0-8.14,6.69-11.53,16.98-11.53,1.79,0,3.93.21,5.8.41v-2.21c0-2.28-1.59-4.14-6.97-4.14-4.83,0-8.28.97-12.28,2.55l-1.86-8.07c3.24-1.38,8.63-2.9,15.8-2.9,11.04,0,16.7,4.9,16.7,13.46v11.25c0,1.86.41,2.76,2.28,2.76.48,0,1.1-.07,1.73-.28ZM267.99,165.96v-4c-1.59-.28-3.38-.41-4.9-.41-4.49,0-6.21,1.45-6.21,3.66,0,2.35,2.07,3.31,4.49,3.31,2.97,0,4.83-.9,6.62-2.55Z"/>
      <path class="cls-11" d="M301.94,141.8h9.25v8.42h-9.25v14.63c0,2.21,1.04,3.66,4.14,3.66,1.59,0,2.76-.14,4.55-.83l1.24,8.01c-3.38,1.17-6.97,1.31-9.11,1.31-8.63,0-12.22-4.42-12.22-11.87v-14.91h-5.31v-8.42h5.31v-10.56l11.39-1.86v12.42Z"/>
      <path class="cls-11" d="M315.13,130.28l7.73-7.38,7.52,7.38-7.52,7.38-7.73-7.38ZM317.06,176.31v-34.51h11.39v34.51h-11.39Z"/>
      <path class="cls-11" d="M374,159.05c0,9.59-6.56,17.94-19.39,17.94s-19.39-8.35-19.39-17.94,6.49-17.94,19.39-17.94,19.39,8.42,19.39,17.94ZM362.33,159.05c0-4.76-2.07-9.52-7.73-9.52s-7.73,4.76-7.73,9.52,2.07,9.46,7.73,9.46,7.73-4.62,7.73-9.46Z"/>
      <path class="cls-11" d="M414.3,154.09v22.22h-11.39v-21.95c0-3.04-1.79-4.83-5.25-4.83-2.42,0-4.14,1.1-5.52,2.42v24.36h-11.39v-34.51h10.21l1.1,4.83c2.42-3.73,6-5.52,10.28-5.52,7.73,0,11.94,4.28,11.94,12.98Z"/>
      <path class="cls-11" d="M458.68,168.3v8.01c-1.52.41-4.35.69-5.59.69-5.38,0-8.21-2-9.32-5.66-3.52,4.9-8.01,5.66-11.73,5.66-7.32,0-11.53-4.42-11.53-10.01,0-8.14,6.69-11.53,16.98-11.53,1.79,0,3.93.21,5.8.41v-2.21c0-2.28-1.59-4.14-6.97-4.14-4.83,0-8.28.97-12.28,2.55l-1.86-8.07c3.24-1.38,8.63-2.9,15.8-2.9,11.04,0,16.7,4.9,16.7,13.46v11.25c0,1.86.41,2.76,2.28,2.76.48,0,1.1-.07,1.73-.28ZM443.29,165.96v-4c-1.59-.28-3.38-.41-4.9-.41-4.49,0-6.21,1.45-6.21,3.66,0,2.35,2.07,3.31,4.49,3.31,2.97,0,4.83-.9,6.62-2.55Z"/>
      <path class="cls-11" d="M463.37,127.17l11.39-1.24v50.38h-11.39v-49.14Z"/>
      <path class="cls-11" d="M550.47,176.65h-13.73l-8.01-28.09-7.66,28.09h-13.18l-13.73-46.65,11.39-1.24,9.52,34.3,8.49-33.68h10.9l9.18,33.68,8.9-33.68h11.39l-13.46,47.28Z"/>
      <path class="cls-11" d="M605.27,168.3v8.01c-1.52.41-4.35.69-5.59.69-5.38,0-8.21-2-9.32-5.66-3.52,4.9-8.01,5.66-11.73,5.66-7.32,0-11.53-4.42-11.53-10.01,0-8.14,6.69-11.53,16.98-11.53,1.79,0,3.93.21,5.8.41v-2.21c0-2.28-1.59-4.14-6.97-4.14-4.83,0-8.28.97-12.28,2.55l-1.86-8.07c3.24-1.38,8.63-2.9,15.8-2.9,11.04,0,16.7,4.9,16.7,13.46v11.25c0,1.86.41,2.76,2.28,2.76.48,0,1.1-.07,1.73-.28ZM589.88,165.96v-4c-1.59-.28-3.38-.41-4.9-.41-4.49,0-6.21,1.45-6.21,3.66,0,2.35,2.07,3.31,4.49,3.31,2.97,0,4.83-.9,6.62-2.55Z"/>
      <path class="cls-11" d="M623.83,141.8h9.25v8.42h-9.25v14.63c0,2.21,1.04,3.66,4.14,3.66,1.59,0,2.76-.14,4.55-.83l1.24,8.01c-3.38,1.17-6.97,1.31-9.11,1.31-8.63,0-12.22-4.42-12.22-11.87v-14.91h-5.31v-8.42h5.31v-10.56l11.39-1.86v12.42Z"/>
      <path class="cls-11" d="M673.11,162.16h-23.6c.97,4.49,4.07,6.97,9.18,6.97,3.11,0,7.45-.69,11.39-2.55l1.86,7.45c-3.17,1.66-8.9,2.97-14.49,2.97-13.46,0-20.01-7.18-20.01-17.94s7.18-17.94,18.98-17.94,16.91,7.8,16.91,17.05c0,1.17-.07,2.97-.21,4ZM661.93,155.19c0-3.52-1.52-6.21-5.87-6.21-3.04,0-5.73,1.66-6.63,6.21h12.49Z"/>
      <path class="cls-11" d="M691.54,155.53v20.77h-11.39v-34.51h10.21l1.04,7.8c2.42-5.38,6.69-8.49,11.25-8.49l.9,11.39c-5.31,0-9.8,1.38-12.01,3.04Z"/>
    </g>
    <line class="cls-3" x1="720.1" y1="27.71" x2="720.1" y2="180.48"/>
  </g>
</svg>