<?xml version="1.0" encoding="UTF-8"?>
<svg id="Layer_2" data-name="Layer 2" xmlns="http://www.w3.org/2000/svg" xmlns:xlink="http://www.w3.org/1999/xlink" viewBox="0 0 612.64 475.15">
  <defs>
    <style>
      .cls-1 {
        fill: #9edede;
      }

      .cls-2 {
        fill: #d7eef4;
      }

      .cls-3 {
        fill: url(#linear-gradient-2);
      }

      .cls-4 {
        fill: #70bacb;
      }

      .cls-5 {
        fill: #fff;
      }

      .cls-6 {
        fill: url(#linear-gradient-4);
      }

      .cls-7 {
        fill: #6ac5e4;
      }

      .cls-8 {
        fill: url(#linear-gradient-3);
      }

      .cls-9 {
        fill: #0ebbcc;
      }

      .cls-10 {
        fill: url(#linear-gradient);
      }

      .cls-11 {
        fill: #232b4f;
      }

      .cls-12 {
        fill: #b6e5ed;
      }
    </style>
    <linearGradient id="linear-gradient" x1="-68.63" y1="387.9" x2="659.04" y2="369.52" gradientUnits="userSpaceOnUse">
      <stop offset="0" stop-color="#fff"/>
      <stop offset=".57" stop-color="#70bacb"/>
      <stop offset="1" stop-color="#fff"/>
    </linearGradient>
    <linearGradient id="linear-gradient-2" x1="-82.07" y1="371.91" x2="651.53" y2="376.06" gradientUnits="userSpaceOnUse">
      <stop offset="0" stop-color="#fff"/>
      <stop offset=".09" stop-color="#eff7f9"/>
      <stop offset=".26" stop-color="#c6e3ea"/>
      <stop offset=".5" stop-color="#85c4d2"/>
      <stop offset=".57" stop-color="#70bacb"/>
      <stop offset="1" stop-color="#fff"/>
    </linearGradient>
    <linearGradient id="linear-gradient-3" x1="24.73" y1="425.48" x2="587.92" y2="425.48" xlink:href="#linear-gradient"/>
    <linearGradient id="linear-gradient-4" x1="260.81" y1="272.15" x2="347.39" y2="407.37" gradientUnits="userSpaceOnUse">
      <stop offset="0" stop-color="#fff"/>
      <stop offset=".07" stop-color="#eff8fc"/>
      <stop offset=".21" stop-color="#c6e6f4"/>
      <stop offset=".4" stop-color="#85c9e8"/>
      <stop offset=".57" stop-color="#46aedd"/>
      <stop offset="1" stop-color="#fff"/>
    </linearGradient>
  </defs>
  <g id="Layer_1-2" data-name="Layer 1">
    <g>
      <path class="cls-5" d="M602.82,380.79c-4.34-3.28-9.59-5-14.9-5-1.84,0-3.7.22-5.53.64-.74-10.62-6.54-24.09-26.05-36.73-.7-.45-1.42-.87-2.17-1.25-4.12-2.11-8.54-4.09-13.22-5.95,3.39-4.23,5.43-9.6,5.43-15.45v-102.11c0-7.05-3.01-13.77-8.27-18.46-4.55-4.06-10.42-6.27-16.45-6.27-.94,0-1.89.05-2.84.16l-7.62.88c21.65-10.3,35.17-31.48,35.17-58.33,0-34.54-26.37-60.59-61.33-60.59-16.14,0-31.14,5.93-42.23,16.69-6.06,5.89-10.68,12.94-13.66,20.73v-11.44c8.02-11.28,10.09-25.23,5.81-39.37-1.42-4.7-3.62-9.26-6.57-13.56-8.79-12.8-13.89-22.47-13.92-22.53-4.27-8.18-12.73-13.27-21.91-13.27-.27,0-.54,0-.81.01-9.49.31-17.97,6.03-21.8,14.72-.55,1.26-2.49,4.17-4.36,6.99-2.95,4.44-6.62,9.97-10.91,17.57-4.3,7.63-6.49,16.19-6.35,24.83l-16.13,1.96c-.94-1.18-1.95-2.32-3.04-3.4l-.07-.07c-7.09-7.02-16.5-10.89-26.48-10.89-6.95,0-13.62,1.88-19.42,5.39-8.64-7.95-18.94-13.04-29.87-14.8-10.56-23.72-32.54-37.7-61.15-37.7-.34,0-.68,0-1.01,0C181.95,6.62,166.54.07,140.76.02c-.55-.01-1.1-.02-1.64-.02-27.22,0-49.3,14.17-62.18,39.91-3.54,7.08-5.92,14.14-7.52,20.19-8.99,4.31-19.33,11.95-27.74,25.45-9.44,15.15-13.25,33.76-10.75,52.4,1.24,9.24,3.72,17.75,7.37,25.28.02.04.03.07.05.11,3.14,6.4,7.15,12.16,11.88,17.1,8.73,9.15,18.49,14.25,26.38,17.65-4.91,4.52-7.99,10.99-7.99,18.19v100.78c0,6.05,2.18,11.59,5.79,15.89-22.47,9.5-36.13,21.43-42.24,36.37-.66,1.6-1.14,3.27-1.45,4.97-.13.73-.23,1.47-.32,2.2-1.89-.45-3.8-.69-5.69-.69-9.82,0-19.09,5.89-22.96,15.54-5.03,12.56.97,26.83,13.46,32.02.34.14,3.49,1.44,9.22,3.49,86.43,32.06,179.63,48.32,277.02,48.32,88.61,0,163.75-13.68,211.18-25.15,27.9-6.75,49-13.36,61.79-17.73,8.27-2.82,13.91-4.98,17.18-6.29,2.13-.85,3.91-1.62,5.31-2.26,14.18-6.58,15.71-18.42,15.71-23.21,0-7.75-3.64-15.05-9.82-19.73Z"/>
      <g>
        <g>
          <path class="cls-7" d="M281.03,116.27c-.89,14.47-7.91,35.26-37.74,39.32-.26.05-.52.1-.77.14-2.67.45-5.23,1.23-7.65,2.31h-.01c-42.43-6.45-89.45-5.34-106.8-4.62,50.94-19,85.35-59.18,108.8-76.52h.01c28.84-6.85,45.05,25.24,44.15,39.38Z"/>
          <path class="cls-9" d="M234.86,158.03c-1.53.68-2.98,1.48-4.38,2.37h-.01c-8.68.8-29.17,3.31-52.98,10.67-23.81,7.36-46,11.84-78.12,9.99h-.01c-.75-.5-1.51-.94-2.28-1.29-7.36-3.38-19.54-6.56-28.95-16.42-2.85-2.97-5.42-6.55-7.57-10.92,3.5,3.05,9.41,6.75,18.55,8.43,10.7,1.97,25.83,1.18,46.7-6.64.76-.27,1.51-.54,2.25-.83,17.34-.72,64.37-1.83,106.8,4.62Z"/>
          <path class="cls-1" d="M230.47,160.42c-4.71,3.05-8.58,7.31-11.23,12.42-7.49,14.44-23.7,36.69-53.68,40.16-42.46,4.91-53.49-23.4-66.19-31.93,32.12,1.84,54.31-2.63,78.12-9.99,23.81-7.36,44.3-9.87,52.98-10.66Z"/>
          <path class="cls-2" d="M180.19,39.87c-21.86,12.41-34.97,29.72-49.21,36.52-10.93,5.19-28.79,4.12-39.99,2.73.22-2.55,5.36-55.47,49.48-54.38,34.12-.01,39.15,13.19,39.72,15.13Z"/>
          <path class="cls-12" d="M236.87,76.89c-23.46,17.34-57.86,57.52-108.8,76.52-.75.28-1.49.56-2.25.83-20.87,7.82-36,8.61-46.7,6.64-9.14-1.68-15.05-5.38-18.55-8.43-2.36-4.87-4.16-10.7-5.11-17.78-1.68-12.5.56-25.33,7.23-36.04,11.73-18.85,28.3-19.42,28.3-19.42,0,0,0-.03.01-.09,11.2,1.4,29.06,2.47,39.99-2.73,14.24-6.79,27.35-24.11,49.21-36.52.04.16.05.24.05.24,0,0,48.37-11.53,54.69,37.29.65-.19,1.3-.37,1.94-.52Z"/>
        </g>
        <g>
          <path class="cls-11" d="M261.58,165.69c0-10.08,2.08-21.49,6.37-34.53l18.67,5.04c-2.67,8.45-4.15,15.56-4.15,22.68.15,14.67,8,21.93,23.42,21.93s22.53-7.85,22.38-24.45v-55.28l23.12-2.82v61.36c0,28.46-15.86,45.65-45.5,45.65s-44.31-13.04-44.31-39.57Z"/>
          <path class="cls-11" d="M485.05,97.07c-19.86,0-35.13,14.37-35.13,34.53,0,5.78,1.63,11.41,4.45,17.34h-34.52c-7.86,0-14.23-3.85-15.41-10.82v-39.87l-23.12,2.82.15,67.88c0,12.75-8.75,17.49-20.75,17.49l1.63,18.82c28.3,0,42.09-9.64,42.09-35.27v-2.52c3.85,3.85,9.19,5.93,15.41,5.93h59.41c26.08,0,42.39-15.86,42.39-40.46,0-20.75-15.41-35.86-36.6-35.86ZM479.42,148.94h-4.74c-2.67-5.48-4.15-10.52-4.15-15.26,0-8.15,6.38-14.52,14.23-14.52s13.78,5.78,13.78,13.63c0,9.78-7.11,16.16-19.12,16.16Z"/>
        </g>
        <g>
          <path class="cls-11" d="M140.49,296.6l-24.01-36.61v57.06h-23.12v-100.78h25.05l30.83,46.98,30.97-46.98h25.05v99.44l-25.79,2.67v-58.39l-24.6,36.61h-14.38Z"/>
          <path class="cls-11" d="M251.05,214.94v60.02c0,15.41,5.04,22.82,20.16,22.82s20.16-7.41,20.16-22.82v-57.35l25.64-2.67v65.65c0,20.16-13.78,37.94-45.79,37.94s-45.79-18.08-45.79-37.94v-62.99l25.64-2.67Z"/>
          <path class="cls-11" d="M413.18,317.05h-81.36v-16.45l47.13-63.58h-44.31v-20.75h77.06v16.3l-47.13,63.73h45.94l2.67,20.75Z"/>
          <path class="cls-11" d="M452.01,317.05h-23.12v-100.78h25.05l44.61,61.06v-59.72l23.12-2.67v102.11h-25.05l-44.61-62.24v62.24Z"/>
        </g>
        <path class="cls-10" d="M265.82,328.81s-133.76,5.58-169.65,35.24c-35.9,38.66,115.29,54.36,208.65,54.36s246.23-15.75,214.69-52.54c-29.85-30.93-171.95-36.93-171.95-36.93,0,0,136.1,1.12,195.34,31.49,69.78,45.23-122.98,69.69-237.28,68-114.31-1.69-256.03-19.41-250.55-49.78,18.98-46.39,210.76-49.86,210.76-49.86Z"/>
        <path class="cls-4" d="M253.88,355.69s-13.65,1.78-14.63,9.49c-.22,1.74.68,3.43,2.21,4.29,8.91,5,33.97,9.81,64.27,9.81,34.98,0,76.14-5.98,66.55-17.25-8.34-6.94-18.7-7.72-18.7-7.72,0,0,25.08,2.29,41.01,8.94,26.99,14.53-45.66,24.68-88.48,24.05-42.82-.63-95.92-7.27-93.86-18.65,2.75-12.05,41.63-12.97,41.63-12.97Z"/>
        <path class="cls-3" d="M263.56,342.07s-54.15,3.93-85.63,18.16c-2.52,1.14-4.63,3.07-5.82,5.56-10.81,22.76,74.65,31.35,133.74,31.35,62.62,0,150.72-11.81,133.57-31.99-15.47-16.73-89.72-22.8-89.72-22.8,0,0,75.16-1.01,114.89,19.36,46.8,30.33-81.72,45.53-158.39,44.4-76.67-1.13-171.72-13.02-168.04-33.39,9.67-26.76,125.4-30.65,125.4-30.65Z"/>
        <path class="cls-8" d="M24.73,400.52s228.57,95.04,563.19,0c0,2.02-274.17,111.31-563.19,0Z"/>
        <path class="cls-6" d="M306.11,292.63s7.47,14.3,20.64,33.5c1.9,2.76,3.42,5.77,4.39,8.98,7.1,23.46-12.78,35.71-25.03,35.71-11.03,0-25.66-8.31-26.08-25.98-.14-5.78,1.4-11.48,4.24-16.52,10.35-18.35,18.1-27.26,21.84-35.7Z"/>
        <path class="cls-5" d="M290.74,331.11s-16.16,19.18,3.72,30.79c1.51.88,3.34,1.06,4.95.39,2.12-.88,1.99-2.03-.42-3.76-3.19-2.3-13.07-6.25-8.25-27.42Z"/>
        <path class="cls-11" d="M411.31,66.1c-.72-2.39-1.87-4.64-3.28-6.71-9.86-14.37-15.45-25.07-15.45-25.07-2.79,6.31-8.59,12.98-16.35,26.71-2.12,3.76-3.27,8.03-3.18,12.37.32,13.21,11.28,19.43,19.52,19.43,9.17,0,24.06-9.17,18.73-26.73ZM388.27,87.38c-1.03.43-2.19.31-3.15-.25-12.68-7.39-2.38-19.63-2.38-19.63-3.08,13.5,3.23,16.01,5.26,17.48,1.53,1.11,1.63,1.84.27,2.4Z"/>
        <path class="cls-11" d="M293.54,89.78h0c5.03-4.98,13.13-4.98,18.16,0l.09.09c5.08,5.03,5.1,13.24.04,18.29h0c-5.01,5.01-13.11,5.04-18.16.09l-.09-.09c-5.14-5.04-5.16-13.31-.04-18.38Z"/>
      </g>
    </g>
  </g>
</svg>