<?xml version="1.0" encoding="UTF-8"?>
<svg id="Layer_2" data-name="Layer 2" xmlns="http://www.w3.org/2000/svg" xmlns:xlink="http://www.w3.org/1999/xlink" viewBox="0 0 600.17 453.67">
  <defs>
    <style>
      .cls-1 {
        fill: url(#linear-gradient-2);
      }

      .cls-2, .cls-3, .cls-4, .cls-5, .cls-6 {
        fill: #fff;
      }

      .cls-3 {
        opacity: .41;
      }

      .cls-4 {
        opacity: .79;
      }

      .cls-7 {
        fill: url(#linear-gradient-4);
      }

      .cls-8 {
        fill: url(#linear-gradient-3);
      }

      .cls-5 {
        opacity: .62;
      }

      .cls-6 {
        opacity: .7;
      }

      .cls-9 {
        fill: url(#linear-gradient);
      }
    </style>
    <linearGradient id="linear-gradient" x1="-99.49" y1="387.03" x2="675.96" y2="367.44" gradientUnits="userSpaceOnUse">
      <stop offset=".01" stop-color="#fff" stop-opacity="0"/>
      <stop offset=".57" stop-color="#fff"/>
      <stop offset="1" stop-color="#fff" stop-opacity="0"/>
    </linearGradient>
    <linearGradient id="linear-gradient-2" x1="199.77" y1="368.83" x2="400.4" y2="368.83" xlink:href="#linear-gradient"/>
    <linearGradient id="linear-gradient-3" x1="-113.81" y1="369.99" x2="667.95" y2="374.41" xlink:href="#linear-gradient"/>
    <linearGradient id="linear-gradient-4" x1="33.08" y1="427.07" x2="563.13" y2="427.07" xlink:href="#linear-gradient"/>
  </defs>
  <g id="Layer_1-2" data-name="Layer 1">
    <g>
      <path class="cls-4" d="M273.13,97.56c-.95,15.42-8.42,37.57-40.22,41.91-.27.06-.55.1-.82.14-2.85.48-5.58,1.31-8.15,2.46h-.01c-45.21-6.88-95.33-5.69-113.81-4.93,54.29-20.24,90.95-63.06,115.95-81.54h.01c30.74-7.3,48,26.89,47.05,41.96Z"/>
      <path class="cls-3" d="M223.93,142.06c-1.63.72-3.18,1.58-4.67,2.53h-.01c-9.25.85-31.08,3.53-56.46,11.37-25.37,7.85-49.02,12.62-83.25,10.65h-.01c-.79-.53-1.6-1-2.43-1.37-7.85-3.6-20.82-6.99-30.85-17.5-3.03-3.16-5.78-6.98-8.06-11.63,3.73,3.25,10.03,7.2,19.77,8.99,11.4,2.1,27.53,1.26,49.77-7.08.81-.29,1.6-.58,2.4-.88,18.48-.77,68.6-1.95,113.81,4.93Z"/>
      <path class="cls-6" d="M219.25,144.61c-5.01,3.25-9.15,7.79-11.96,13.24-7.98,15.39-25.26,39.1-57.21,42.8-45.24,5.23-57.01-24.94-70.53-34.03,34.23,1.97,57.87-2.8,83.25-10.65,25.37-7.85,47.21-10.52,56.46-11.36Z"/>
      <path class="cls-4" d="M165.67,16.14c-23.29,13.22-37.27,31.67-52.44,38.91-11.65,5.53-30.68,4.39-42.61,2.9.23-2.72,5.71-59.12,52.73-57.95,36.36-.01,41.72,14.06,42.32,16.13Z"/>
      <path class="cls-5" d="M226.07,55.59c-25,18.48-61.66,61.3-115.95,81.54-.79.3-1.59.59-2.4.88-22.24,8.34-38.37,9.18-49.77,7.08-9.74-1.79-16.04-5.74-19.77-8.99-2.51-5.19-4.44-11.4-5.45-18.94-1.79-13.32.59-26.99,7.7-38.41,12.5-20.09,30.16-20.69,30.16-20.69,0,0,0-.03.01-.1,11.94,1.49,30.97,2.63,42.61-2.9,15.17-7.24,29.15-25.69,52.44-38.91.04.17.06.26.06.26,0,0,51.54-12.28,58.28,39.74.69-.2,1.39-.39,2.07-.55Z"/>
      <path class="cls-2" d="M323.47,81.36v58.91c.16,17.69-7.9,26.06-23.85,26.06s-24.8-7.74-24.95-23.37c0-7.58,1.58-15.16,4.42-24.16l-10.49-2.83-9.41-2.54c-2.19,6.65-3.84,12.9-4.97,18.8-1.22,6.42-1.82,12.4-1.82,18,0,28.27,16.43,42.17,47.23,42.17s48.49-18.32,48.49-48.64v-65.39l-24.64,3Z"/>
      <path class="cls-2" d="M421.07,132.37c-8.37,0-15.16-4.11-16.42-11.53v-42.48l-24.64,3,.16,72.33c0,13.58-9.31,18.64-22.11,18.64l1.73,20.06c30.17,0,44.86-10.27,44.86-37.59v-2.68c4.1,4.11,9.79,6.32,16.42,6.32.95,0,1.58-.79,1.58-1.73v-22.75c0-.94-.63-1.58-1.58-1.58Z"/>
      <path class="cls-2" d="M449.12,132.37h-28.05c-.95,0-1.58.63-1.58,1.58v22.75c0,.94.63,1.73,1.58,1.73h28.05c.95,0,1.58-.79,1.58-1.73v-22.75c0-.94-.63-1.58-1.58-1.58Z"/>
      <path class="cls-2" d="M490.55,77.09c-21.16,0-37.43,15.32-37.43,36.8,0,6.16,1.74,12.16,4.74,18.48h-9.79c-.94,0-1.58.63-1.58,1.58v22.75c0,1.26.47,1.73,1.58,1.73h36.33c27.8,0,45.17-16.9,45.17-43.11,0-22.11-16.43-38.22-39.01-38.22ZM484.55,132.37h-5.06c-2.85-5.85-4.42-11.22-4.42-16.27,0-8.69,6.79-15.48,15.16-15.48s14.69,6.16,14.69,14.53c0,10.42-7.58,17.22-20.37,17.22Z"/>
      <path class="cls-2" d="M165.69,204.13l-33.01,50.06-32.85-50.06h-26.69v107.39h24.64v-60.8l25.58,39.01h15.32l26.21-39.01v62.22l27.48-2.84v-105.97h-26.69Z"/>
      <path class="cls-2" d="M284.13,205.55v61.12c0,16.43-5.21,24.32-21.48,24.32s-21.48-7.9-21.48-24.32v-63.96l-27.32,2.84v67.12c0,21.16,14.69,40.43,48.8,40.43,5.68,0,10.82-.53,15.45-1.5,3.27-5.32,6.21-9.76,8.75-13.59,3.81-5.75,6.83-10.28,8.67-14.43l3.99-8.99,4.55,8.71c.03.06,1.32,2.51,3.73,6.71,2.48-5.32,3.67-11.22,3.67-17.33v-69.97l-27.33,2.84Z"/>
      <path class="cls-2" d="M411.11,289.41h-48.96l50.22-67.91v-17.37h-82.12v22.11h47.22l-50.22,67.75v17.53h86.7l-2.84-22.11Z"/>
      <path class="cls-2" d="M504.92,205.55v63.65l-47.54-65.06h-26.69v107.39h24.64v-66.33l47.54,66.33h26.69v-108.82l-24.64,2.84Z"/>
      <path class="cls-9" d="M256.93,324.05s-142.54,5.94-180.79,37.56c-38.26,41.2,122.86,57.93,222.35,57.93s262.4-16.78,228.79-55.99c-31.81-32.96-183.24-39.36-183.24-39.36,0,0,145.04,1.2,208.16,33.56,74.37,48.2-131.05,74.27-252.86,72.47-121.81-1.8-272.84-20.69-267-53.05,20.23-49.44,224.6-53.13,224.6-53.13Z"/>
      <path class="cls-1" d="M244.19,352.7s-14.55,1.9-15.59,10.11c-.23,1.86.72,3.66,2.36,4.57,9.49,5.32,36.2,10.46,68.49,10.46,37.27,0,81.13-6.37,70.92-18.38-8.89-7.39-19.93-8.23-19.93-8.23,0,0,26.73,2.44,43.7,9.53,28.77,15.48-48.65,26.3-94.29,25.63-45.64-.67-102.22-7.75-100.03-19.87,2.93-12.85,44.36-13.82,44.36-13.82Z"/>
      <path class="cls-8" d="M254.52,338.19s-57.71,4.18-91.25,19.35c-2.68,1.21-4.94,3.27-6.2,5.93-11.52,24.26,79.55,33.41,142.52,33.41,66.73,0,160.62-12.59,142.34-34.09-16.48-17.83-95.62-24.3-95.62-24.3,0,0,80.1-1.08,122.44,20.63,49.88,32.33-87.09,48.52-168.79,47.32-81.7-1.21-183-13.88-179.08-35.58,10.3-28.52,133.64-32.66,133.64-32.66Z"/>
      <path class="cls-7" d="M0,400.47s243.57,101.29,600.17,0c0,2.15-292.17,118.62-600.17,0Z"/>
      <path class="cls-2" d="M326.53,330.77c-1.04-3.42-2.66-6.62-4.68-9.57-7.34-10.71-13.03-19.98-16.77-26.39-3.41-5.85-5.22-9.31-5.22-9.31-2.91,6.57-8.11,13.4-15,24.24-2.54,3.99-5.31,8.53-8.28,13.8-3.03,5.37-4.67,11.44-4.52,17.61.45,18.82,16.04,27.68,27.8,27.68,13.05,0,34.24-13.05,26.68-38.06ZM292.71,359.73c-1.71.71-3.67.52-5.27-.42-21.19-12.37-3.96-32.81-3.96-32.81-5.14,22.56,5.39,26.77,8.79,29.21,2.57,1.85,2.71,3.07.45,4.01Z"/>
      <path class="cls-2" d="M411.96,44.09c-.77-2.55-1.99-4.95-3.5-7.15-10.51-15.31-16.47-26.72-16.47-26.72-2.97,6.73-9.16,13.84-17.42,28.47-2.26,4.01-3.48,8.56-3.38,13.18.34,14.07,12.02,20.7,20.81,20.7,9.77,0,25.63-9.77,19.96-28.48ZM387.41,66.77c-1.1.45-2.33.33-3.35-.27-13.51-7.88-2.54-20.92-2.54-20.92-3.28,14.39,3.44,17.06,5.6,18.63,1.63,1.18,1.73,1.96.28,2.56Z"/>
      <path class="cls-2" d="M286.46,69.33h0c5.36-5.31,13.99-5.31,19.35,0l.1.09c5.41,5.36,5.44,14.11.05,19.5h0c-5.33,5.33-13.97,5.38-19.35.09l-.1-.09c-5.48-5.37-5.5-14.19-.05-19.59Z"/>
    </g>
  </g>
</svg>